<?xml version="1.0" encoding="UTF-8"?>
<svg id="Capa_2" data-name="Capa 2" xmlns="http://www.w3.org/2000/svg" viewBox="0 0 1170.44 331.24">
  <g id="Capa_1-2" data-name="Capa 1">
    <g>
      <path d="M667.1,5.58c3.27,7.74,49.48,144.5,51.54,148.18,3.13-7.18,36.73-112.76,50.73-148.27,6.43-.22,92.35.14,119.33,0,2.41,7.12-.05,35.68.79,43.21,2.03,4.44-24.97.84-27.64,2.38-.55,12.78.1,128-.13,165.22.38,1.12,2.17.45,3.22.65,3.13.76,26.1-1.98,24.55,1.97-.1,8.43.1,31.06.01,38.83-.25,2.83.82,4.42-1.2,4.52-12.01-.22-93.01.26-115.6-.09-1.04-8.09-.09-35.46-.39-43.13-.23-2.08,1.36-2.1,3.38-2.09,6.74-.34,16.84.63,22.47-.38.34-10.48-.02-131.31.11-139.19-16.25,42.47-58.9,174.64-65.32,184.87-8.23-.17-26.03-.24-33.86-.72-4.21-10.47-39.84-114.5-51.16-146.74-7.16-20.52-12.06-35-12.74-36.6-.14,1.31.05,7.39-.03,17.02.18,35.75-.34,113.41.18,121.43,5.52.8,15.64.04,21.75.3,2.11-.11,4.44-.09,4.04,2.31,0,11.88.07,31.69-.05,42.27-8.73,1.41-90.62,1.59-117.1-.14.33-7.67-.83-35.65.42-44.01,5.81-1.03,17.58-.14,23.79-.42,8.66.93,1.17-134.18,3.53-165.48-6.11-1.97-19.42.14-26.6-.8-1.04-.12-1.16-.97-1.17-1.9-.03-1.92,0-5.78-.01-10.45.46-11.44-.86-24.22.46-32.78,8.96-.25,94.67-.04,122.67.04h0Z"/>
      <path d="M194.41,261.72c-1.99-4.85-3.06-12.8-4.62-18.49-.87-5.34-3.21-1.93-5.44.34-28.71,29.69-77.3,29.17-113.48,14.87C-4.6,228.97-16.28,117.82,19.26,53.9,48.92,4.22,110.32-6.15,162.8,2.99c35.43,6.05,75.08,31.91,70.69,71.47-.27,1.4-.67,1.99-1.84,2.29-9.59,1.67-48.3,10.54-61.7,12.21-1.04-1.84-.19-8.31-.95-11.52-2.04-12.47-15.23-19.78-26.7-22.2-60.33-10.2-77.58,35.54-73.18,86.3.65,42.53,18.79,75.6,65.53,71.76,15.62-.62,39.07-5.11,37.8-24.53-.09-4.29.21-10.26-.16-14.15-.26-1.96-4.29-.91-6.04-1.16-8.62,0-19.56,0-28.5,0-2.12,0-4.09,0-6.12,0-1.9-.02-2.05-.18-2.07-2.04-.02-13.14,0-29.18,0-41.89,7.29-3.9,102.71-.1,120.32-1.39,1.38.19,2.72-.6,2.89.82.07,6.76.06,31.68,0,41.55.3,3.24-3.66,2.84-6.07,2.95-2.41.39-13.68-1.01-13.22,1.12-.87,8.76,1.61,79.68-.88,87.66-7.84.12-19.14.02-28.32.05-4.82-.34-7.15.69-9.84-.52l-.03-.03Z"/>
      <path d="M1150.44,216.88c4.73.16,12.4-.01,17.02.06,1.06.12,2.47-.23,2.85.94.28,8.92,0,31.48.1,40.13-.12,2.28.37,3.93-.53,4.2-10.47,0-92.46.1-105.97-.02-.66-.3-.34-1.38-.43-2.09.06-7.51-.14-35.35.09-42.22.16-.82.83-.92,2.77-.95,4.3-.01,11.26,0,15.74,0,1.84-.18,4.73.62,4.38-1.35-1.35-4.48-5.62-15.66-7.37-20.78-.92-2.38-.7-3.12-3.6-2.9-13.15.37-70.93-1.19-79.88.1-2.33,5.51-5.95,16.98-7.87,22.14-.77,2.27-.94,2.92,2.72,2.79,4.06.01,9.67,0,14.31,0,2.77.19,5.47-.48,6.54.59.35,8.98.49,37.2-.05,44.59-10.78.42-91.11-.02-99.73.13-.81-.02-.83-.17-.88-1.23-.1-7.1.05-34.44,0-41.88-.21-2.35,1.3-2.16,3.11-2.2,3.42-.02,10.66,0,13.92-.01.64-.01,2.73.08,2.96-.27,3.27-8.81,51.59-142.76,69.67-192.76,3.13-8.66,5.33-14.76,6.21-17.18.21-.53.22-.82.49-1.14.38-.15.86-.12,1.33-.12,12.41.33,41.07.29,55.08.58,1.78.12,2.3-.22,2.9.31,9.32,22.62,67.82,173.21,84.09,210.52h.04ZM1009.82,146.23c10.91.39,31.18.02,42.45.14,3.98,0,6.91.02,8.04-.02.54-.03.75-.1.75-.34-2.9-7.83-24.32-69.28-27.61-76.19-5.61,17.79-13.05,41.81-18.72,59.9-2.51,8.04-4.42,14.13-4.94,15.85-.07.26-.14.47.02.64h.01Z"/>
      <path d="M507.07,216.88c4.73.16,12.4-.01,17.02.06,1.06.12,2.46-.23,2.85.94.28,8.92,0,31.48.1,40.13-.14,2.34.42,3.8-.53,4.2-10.47.01-92.46.1-105.97-.02-.66-.3-.34-1.38-.43-2.09.06-7.51-.14-35.35.09-42.22.16-.82.83-.92,2.77-.95,4.33-.01,11.39,0,15.87,0,1.86-.19,4.61.63,4.22-1.39-1.46-4.59-5.94-16.04-7.77-21.18-.88-2.31-.82-3.1-3.62-2.84-13.14.46-70.8-.74-79.73.61-2.26,5.48-5.73,16.8-7.59,21.97-.74,2.21-.89,2.98,2.69,2.82,4.04.01,9.71,0,14.25,0,2.84.22,4.88-.54,6.08.65.26,9.11.52,37.18-.09,44.54-10.68.39-88.25-.02-98.48.12-1.16-.08-1.73-.35-1.99-1.85-.45-7.47.04-31.42-.14-39.71-.07-2.09.41-3.54,2.74-3.58,5.34-.59,12.34.38,16.96-.45,5.02-13.06,58.28-159.75,76.77-209.94.22-.53.22-.82.5-1.14.38-.15.86-.12,1.33-.12,12.41.33,41.06.3,55.07.6,1.79.17,2.28-.26,2.9.31,9.35,22.7,67.83,173.18,84.1,210.51h.04ZM417.61,146.22c.16-.17.07-.38,0-.62-.59-1.7-2.77-7.78-5.64-15.83-6.53-18.28-15.12-42.44-21.58-60.46-2.93,6.18-21.44,68.87-24.04,76.68,0,.26.2.34.73.37,1.08.04,3.91,0,7.8.02,11.27-.12,31.72.24,42.72-.14h.01Z"/>
    </g>
    <g>
      <path d="M769.18,300.27c2.7-.84,5.04,1.48,5.58,4.07,1.6,4.9,3.95,13.33,5.68,17.99,1.46,3.22,2.84-1.38,3.85-4.04,1.61-4.55,2.67-9.83,4.51-14.29.83-2.21,4.01-4.92,5.92-3.62.83.57.97,2.02.98,3.14.02,5.43,0,17.41,0,22.94.03,1.3-.17,3.13-1.46,3.57-1.59.32-2.26-1.07-2.46-2.91-.15-3.92-.02-11.14-.06-15.27,0-2.65.02-4.26-.21-4.18-.47.54-.9,2.28-1.83,4.94-1.62,4.65-3.29,10.26-5.09,14.93-1.19,2.65-3.28,2.82-4.85,1.29-1.47-1.57-1.83-3.79-2.6-5.84-1.77-4.96-3.83-12.2-5.72-16.71-.26-.22-.23,1.33-.24,4.01,0,4.1,0,10.52,0,14.69-.07,2.29.14,4.18-1.5,5.02-.43.11-.88-.11-1.21-.62-.42-.61-.59-1.68-.59-2.56-.01-5.59-.02-18.85,0-24,0-1.04.24-2.19,1.22-2.53l.06-.02Z"/>
      <path d="M128.42,300.26c2.59-.94,4.79,1.37,5.34,3.82,1.66,4.94,4.13,13.55,5.92,18.24,1.41,3.18,2.89-1.59,3.45-2.94,1.49-4.17,2.59-8.82,4.01-13.13.5-1.46,1.11-3.01,2.13-4.15,1.52-1.84,4.73-2.58,5.44.21.39,1.32.21,4.23.25,6.53-.03,5.8.06,12.86-.03,18.42-.18,3.85-3.84,3.77-3.92-.61-.1-5.51.05-13.29-.06-18.94-.04-1.17-.3-.73-.57.04-1.02,2.92-4.58,13.97-6.25,18.92-1.29,4.28-5.04,3.85-6.53-.27-1.44-3.96-3.68-10.6-5.13-14.73-1-2.69-1.45-4.64-1.87-4.66-.32,2.09-.09,8.9-.16,12.24-.26,2.79.95,10.48-1.77,10.72-1.35-.19-1.56-2.29-1.54-3.55,0-5.76-.02-18.53.01-23.55,0-1.05.27-2.2,1.22-2.57l.06-.03Z"/>
      <path d="M960.26,326.71c-5.34-5.81-5.14-16.37-.29-22.52,2.72-3.63,7.34-5.6,11.87-5.21,11.09.67,15.74,14,11.6,23.86-.46,1.34-.82,2.53-.74,3.89.11,1.77.88,3.62.39,4.22-.39.41-.94.31-1.74.2-1.5-.27-2.95-.86-4.63-.74-1.65.11-3.26.55-4.93.65-4.2.33-8.67-1.26-11.45-4.25l-.09-.09ZM972.93,326.22c.51-.81.25-2.02.85-2.8.58-.76,2.54-.43,3.87-.82,2.21-.63,2.76-3.13,3.17-5.63,1.03-8.34-4.92-16.01-13.7-12.98-9.63,3.53-8.51,21.1,1.45,22.9,1.32.26,3.67.49,4.33-.62l.03-.05Z"/>
      <path d="M657.68,300.16c4.72.49,9.67,3.24,9.29,8.44-.05,1.95-1.1,3.79-1.44,5.64-.53,2.26.72,4.85,1.09,7.22.06,2.2,1.87,7.34-.63,8.02-3.31-.18-2.87-5.58-3.7-7.99-.52-2.38-2.17-3.88-4.59-3.96-2.52-.15-6.5-.31-8.35.22-1.9.67-1.65,2.7-1.74,4.57-.06,1.96.22,4.72-.68,6.31-1.04,1.92-3,1.4-3.36-.32-.17-6.43-.33-19.5.06-26.64.49-1.56,1.77-1.51,3.45-1.66,3.27-.07,7.16-.3,10.47.14l.13.02ZM648.44,313.41c.99.79,2.43.61,4.31.66,2.33-.03,4.31.01,6.15-.66,3.39-1.12,4.53-5.83,2.28-8.24-1.1-1.06-2.61-.98-4.11-1.03-1.84-.01-3.86-.01-5.72,0-3.2-.09-3.64.93-3.65,3.43.08,1.7-.37,4.57.68,5.78l.06.06Z"/>
      <path d="M324.67,322.32c.15,0,.26-.12.34-.35.19-.58.21-1.37.23-2.12.1-4.46-.16-11.85.13-16.71.14-1.03.54-2.03,1.41-2.38,2.2-.69,2.58,2.35,2.45,4.42,0,2.34,0,5.64,0,9.05,0,3.44,0,6.61,0,9.88-.13,3.26.62,5.83-2.2,5.63-2.46-.53-4.54-2.79-5.81-4.96-2.77-4.57-5.42-9.39-8.23-13.87-.75-1.06-1.57-2.55-2.64-3.09-1.39-.27-.9,3.91-1,7.41-.03,3.54.06,8.77-.04,11.79-.19,2.9-1.74,3.71-2.71,2.36-.81-1.27-.5-2.87-.57-5.6,0-4.53,0-10.82,0-15.54.15-3.45-1.14-10.62,4.23-7.22.76.52,1.41,1.25,1.98,2.03,2.87,3.95,6.91,11.81,9.99,16.47.57.88,1.89,2.86,2.4,2.82h.03Z"/>
      <path d="M390.67,301.32c1.27,2.59-3.24,2.93-5.51,2.81-2.24,0-5,0-7.2,0-1.68.04-3.62,0-4.18,1.81-.5,1.93-.61,4.82.75,6.06,2.68,2.1,14.39-1.17,14.93,2.78-.83,3.83-12.45.5-15.06,2.74-1.28,1.38-1.09,4.46-.68,6.52.45,1.83,2.27,1.91,3.96,1.93,2.22.02,5.02,0,7.27.01,2.37-.13,6.74.31,6.1,2.83-.26,1.11-3.13,1.21-4.61,1.14-3.73,0-9.12,0-12.55,0-1.51,0-2.62,0-3.32-.15-.5-.11-.81-.3-1-.63-.26-.51-.27-1.2-.29-1.87-.01-4.69-.02-17.74,0-23.01.09-1.66.03-3.45,1.96-3.83,3.79-.64,9.91-.2,14.1-.33,1.67-.07,4.68,0,5.27,1.11l.04.05Z"/>
      <path d="M727.94,301.32c1.27,2.59-3.24,2.93-5.51,2.81-2.24,0-5,0-7.2,0-1.68.04-3.62,0-4.18,1.81-.5,1.93-.61,4.82.75,6.06,2.68,2.1,14.39-1.17,14.93,2.78-.83,3.83-12.45.5-15.06,2.74-1.28,1.38-1.09,4.46-.68,6.52.45,1.83,2.27,1.91,3.96,1.93,2.22.02,5.02,0,7.27.01,2.37-.13,6.74.31,6.1,2.83-.26,1.11-3.13,1.21-4.61,1.14-3.73,0-9.12,0-12.55,0-1.51,0-2.62,0-3.32-.15-.5-.11-.81-.3-1-.63-.26-.51-.27-1.2-.29-1.87-.01-4.69-.02-17.74,0-23.01.09-1.66.03-3.45,1.96-3.83,3.79-.64,9.91-.2,14.1-.33,1.67-.07,4.68,0,5.27,1.11l.04.05Z"/>
      <path d="M1108.29,301.32c1.27,2.59-3.24,2.93-5.51,2.81-2.24,0-5,0-7.2,0-1.68.04-3.62,0-4.18,1.81-.5,1.93-.61,4.82.75,6.06,2.68,2.1,14.39-1.17,14.93,2.78-.83,3.83-12.45.5-15.06,2.74-1.28,1.38-1.09,4.46-.68,6.52.45,1.83,2.27,1.91,3.96,1.93,2.22.02,5.02,0,7.27.01,2.37-.13,6.74.31,6.1,2.83-.26,1.11-3.13,1.21-4.61,1.14-3.73,0-9.12,0-12.55,0-1.51,0-2.62,0-3.32-.15-.5-.11-.81-.3-1-.63-.26-.51-.27-1.2-.29-1.87-.01-4.69-.02-17.74,0-23.01.09-1.66.03-3.45,1.96-3.83,3.79-.64,9.91-.2,14.1-.33,1.67-.07,4.68,0,5.27,1.11l.04.05Z"/>
      <path d="M252.4,299.64c20.48-.69,19.06,33.62-1.45,30.92-11.82-1.21-15.62-16.55-9.34-25.26,2.21-3.28,6.28-5.54,10.64-5.65h.14ZM246.2,324.6c3.95,3.91,10.9,3.04,14.29-1.2,2.97-3.49,3.18-9.09,1.8-13.21-1.66-5.8-8.29-8.45-13.67-5.93-6.97,3.4-7.62,15.1-2.52,20.25l.09.09Z"/>
      <path d="M847.41,299.63c20.43-1.4,20.3,32.8-.32,30.99-11.96-.74-16.27-15.92-10.3-24.93,2.11-3.41,6.22-5.81,10.47-6.05h.14ZM845.51,303.54c-2.96.69-5.06,2.81-6.18,5.63-3.41,8.17,1.23,20.24,11.6,17.66,12.77-3.76,8.95-26.77-5.3-23.32l-.13.03Z"/>
      <path d="M550.91,302.56c1.82,1.67,1.97,4.46.87,6.58-.85,1.75-2.4,3.14-2.69,4.6-.42,1.98,1.14,4.32,3.21,4.48,1.42.16,3.01-1.38,4-1.12,1.75.88.2,4.34.67,6.2.22,1.85,1.71,3.73,2.01,4.99.49,1.84-1.45,1.44-2.62,1.09-1.29-.34-2.62-.64-4-.58-1.71.04-3.52.58-5.21,1-4.62,1.26-8.88-.2-11.08-2.85-1.97-2.35-2.29-5.62.15-8.65.8-1.03,1.79-2.04,2.5-3.1.95-1.35,1.21-2.86.84-4.49-.96-2.99-1.16-6.83,1.79-8.8,2.6-1.86,7.04-1.7,9.48.56l.09.08ZM544.98,303.54c-2.82.65-2.89,4.16-1.6,6.24.47.85,1.18,1.63,2.16,1.62,4.48-.62,4.56-8.9-.43-7.88l-.13.03ZM543.1,316.38c-1.41.24-2.58,1.7-3.4,2.98-2.94,4.87,2.15,9.99,7.41,7.68,3.28-1.44,4.18-3.51,1.25-6.43-1.46-1.4-3.19-4.32-5.16-4.24h-.1Z"/>
      <path d="M1168.66,307.2c-1.34,1.46-4.05-1.82-5.68-2.64-1.27-.82-2.96-1.28-4.62-1.28-4.78-.31-8.51,4.63-3.69,7.77,2.8,1.75,7.72,2.06,11.23,3.8,3.57,1.6,5.3,5.56,4.22,9.21-2.47,8.91-19.34,8.78-22.69.35-.71-2.5.79-3.99,2.81-2.08,1.3,1.09,2.57,2.8,4.54,3.65,2.15.97,4.8,1.19,7.06.7,5.23-1.03,6.42-6.19,1.21-8.46-3.27-1.53-8.19-2.05-11.41-3.84-3.36-1.69-4.61-5.76-3.17-9.12,2.86-7.11,15.79-7.63,19.9-.94.69,1.12.71,2.27.33,2.84l-.03.05Z"/>
      <path d="M450.95,307.18c-1.3,1.17-3.5-1.42-5.52-2.55-8.48-4.72-18.48,5.54-4.16,8.15,6.11,1.2,13.28,3.72,11.23,11.36-2.58,8.55-21.41,9.12-23.05-1,.27-3.16,2.8-.82,4.33.71,2.48,2.8,6.37,3.92,10.08,2.97,4.49-.92,6.51-6.08,2-8.37-5.81-2.74-17.5-2.57-15.34-12.09,1.92-7.91,14.3-8.99,19.34-3.02.93.91,1.8,2.99,1.14,3.79l-.03.05Z"/>
      <path d="M1026.52,300.52c1.02.61,1.05,1.99,1.09,4.2,0,3.44,0,8.71,0,12.23.03,2.38-.08,4.27,1.11,6.22,1.23,1.96,3.51,3.45,5.88,3.6,3.27.31,6.63-1.8,7.72-4.67.76-2.23.5-4.12.56-6.66,0-1.93,0-4.24,0-6.45.21-2.92-1-9.83,2.67-8.71,1.54.67,1.32,4.03,1.31,5.77,0,2.54,0,5.65,0,8.34.04,5.49.5,9.66-3.91,13.39-4.73,3.96-11.98,4.02-15.98-.3-3.78-4.29-3.48-9.91-3.64-15.46.11-3.16-.82-11.77,3.14-11.5l.05.02Z"/>
      <path d="M77.74,300.01c1.71.52,1.9,2.19,3.01,4.99,1.07,2.89,2.18,5.91,3.45,9.36,1.49,4.04,3,8.14,4.08,11.07.93,2.51,2.06,4.98-.55,4.42-3.65-1.1-3.55-6.45-7.05-7.65-1.69-.63-4.41-.5-6.7-.41-1.38.09-2.85.23-3.89,1.19-1.73,1.71-2.04,4.86-4.03,6.35-2.13,1.7-3.09.09-2.23-1.71,1.89-5.01,6.88-18.16,8.98-23.7.63-2.23,2.37-4.48,4.87-3.92l.07.02ZM72.54,318c.48.35,1.36.48,2.44.5,1.52-.01,3.74-.04,4.99-.69,1.63-1.05-.05-3.73-.41-5.21-1.34-3.24-2.58-10.35-4.9-4.37-.82,1.98-1.67,4.54-2.27,6.59-.44,1.56-.58,2.63.07,3.14l.06.05Z"/>
      <path d="M26,307.94c-.45.83-2.12.08-3.1-.75-2.61-2.35-6.08-4.37-9.82-3.46-10.48,2.11-11.3,19.81-.93,22.54,2.91.81,6.34.03,8.51-2.05,1.83-1.67,2.71-3.61,4.2-4.56,1.06-.67,1.97-.02,1.76,1.58-.31,2.96-4.23,7.09-7.47,8.31-12.94,5.6-22.68-10.3-17.11-21.81,3.37-7.87,14.37-10.65,21.07-5.37,1.71,1.45,3.68,3.47,2.93,5.52l-.03.05Z"/>
      <path d="M903.97,300.46c.99.3,1.03,1.56,1.04,2.5.21,5.83-.41,17.07.27,22.28.63.99,1.54.78,2.97.89,2.55.11,7.4-.2,9.85.21,3.3.83,2.42,3.81-.74,3.83-4.25.05-10.55.1-14.71-.03-1.65-.05-1.66-1.15-1.67-2.44,0-4.92-.02-19.26.01-24.31-.12-1.64,1.33-3.33,2.93-2.94l.05.02Z"/>
      <path d="M198.36,300.3c1.47.31.87,3.57.99,6.03,0,5.03,0,12.37,0,17.48-.09,2.36.22,3.68-.21,5.28-.54,1.23-2.42,1.33-3.27.42-.41-.44-.48-1.13-.49-1.78-.01-4.94,0-18.68,0-23.98-.16-1.94.89-3.82,2.92-3.45l.06.02Z"/>
    </g>
  </g>
</svg>