<?xml version="1.0" encoding="UTF-8"?>
<svg id="Capa_2" data-name="Capa 2" xmlns="http://www.w3.org/2000/svg" viewBox="0 0 430.93 331">
  <g id="Capa_1-2" data-name="Capa 1">
    <g>
      <path d="M17.94,219.05c1.72-1.09,1.52-2.4,1.53-5.34,0-14.28.16-40.75.15-50.47,1.31-32.04,29.88-38.27,56.7-40.07,15.79-2.45,34.8-48.58,47.47-62.44,17.9-30.74,50.56-24.29,83.3-23.55,8.5-1.35,18.89,3.43,18.8,12.78.08,13.15.55,107.57.74,142.4.71,7.82,11.07,13.01,17.95,13.19,11.22.09,84.83.41,125.7.62,20.43,1.26,26.23-4.37,36.15,8.81,7.18,9.57,6.9,59.35-1.58,66.61-11.86,16.01-42.58-2.43-49.22,14.74-4.54,9.67-11.31,18.06-20,24.17-35.89,23.82-74.49,4.51-90.5-31.48-22.45-.54-62.42-.11-79.94-.31-4.88-.72-6.73,4.16-8.61,8.33-24.31,51.6-88.72,39.64-110.68-7.28-14.37-3.31-37.18,4.37-43.68-14.25C-.9,264.82,0,249.98.57,239.86c.35-10.13,8.29-17.43,17.29-20.77l.07-.05ZM99.34,244.09c-8.54,1.25-15.91,6.49-19.59,13.13-10.51,18.46-.11,43.79,22.65,44.36,43.29,2.72,37.36-64.63-2.88-57.52l-.18.03ZM323.19,293.11c6.07-5.9,9.48-15.05,8.3-22.58-2.66-21.25-29.13-35.79-46.79-20.86-32.13,25.4,9.59,72.15,38.36,43.58l.13-.13Z"/>
      <path d="M257.01.69C294.88-.64,401.07.45,415.12,0c4.08.14,8.37,1.35,11.63,4.73,2.61,2.88,3.16,7.27,3.21,11.14.42,53.1,2.39,107.01-.9,159.96-1.25,3.78-4.14,7.29-7.74,7.73-3.11,0-13.19,0-26.98,0-32.82.13-116.92-.09-138.46,0-5.44-.89-9-8.15-9.27-13.23.04-7.59-.01-75.91.02-103.07,0-14.85,0-28.41,0-38.3.28-12.93-2.59-23.62,10.27-28.25l.09-.03ZM394.41,36.17c-22.26-.41-56.23-.04-80.56-.16-10.1,0-19.4,0-29.15,0-2.27.03-2.05-.24-2.06,1.92.02.64-.01,1.22,0,1.91,0,8.92,0,17.52,0,26.79.13,25.19-.29,58.61.16,81.93,22.45.49,56.72.04,81.22.18,9.9,0,19.07,0,28.63,0,2.18-.02,1.91.2,1.94-2.05,0-9.78,0-19.1,0-29.22-.13-25,.29-58.21-.16-81.3h-.01Z"/>
    </g>
  </g>
</svg>