<?xml version="1.0" encoding="UTF-8"?>
<svg xmlns="http://www.w3.org/2000/svg" viewBox="0 0 1170.44 647.56">
      <path fill="currentColor"/>
      <path d="M667.1,323.3c3.27,7.74,49.48,144.5,51.54,148.18,3.13-7.18,36.73-112.76,50.73-148.27,6.43-.22,92.35.14,119.33,0,2.41,7.12-.05,35.68.79,43.21,2.03,4.44-24.97.84-27.64,2.38-.55,12.78.1,128-.13,165.22.38,1.12,2.17.45,3.22.65,3.13.76,26.1-1.98,24.55,1.97-.1,8.43.1,31.06.01,38.83-.25,2.83.82,4.42-1.2,4.52-12.01-.22-93.01.26-115.6-.09-1.04-8.09-.09-35.46-.39-43.13-.23-2.08,1.36-2.1,3.38-2.09,6.74-.34,16.84.63,22.47-.38.34-10.48-.02-131.31.11-139.19-16.25,42.47-58.9,174.64-65.32,184.87-8.23-.17-26.03-.24-33.86-.72-4.21-10.47-39.84-114.5-51.16-146.74-7.16-20.52-12.06-35-12.74-36.6-.14,1.31.05,7.39-.03,17.02.18,35.75-.34,113.41.18,121.43,5.52.8,15.64.04,21.75.3,2.11-.11,4.44-.09,4.04,2.31,0,11.88.07,31.69-.05,42.27-8.73,1.41-90.62,1.59-117.1-.14.33-7.67-.83-35.65.42-44.01,5.81-1.03,17.58-.14,23.79-.42,8.66.93,1.17-134.18,3.53-165.48-6.11-1.97-19.42.14-26.6-.8-1.04-.12-1.16-.97-1.17-1.9-.03-1.92,0-5.78-.01-10.45.46-11.44-.86-24.22.46-32.78,8.96-.25,94.67-.04,122.67.04h0Z"/>
      <path d="M194.41,579.44c-1.99-4.85-3.06-12.8-4.62-18.49-.87-5.34-3.21-1.93-5.44.34-28.71,29.69-77.3,29.17-113.48,14.87-75.46-29.47-87.14-140.63-51.6-204.55,29.67-49.67,91.06-60.04,143.55-50.9,35.43,6.05,75.08,31.91,70.69,71.47-.27,1.4-.67,1.99-1.84,2.29-9.59,1.67-48.3,10.54-61.7,12.21-1.04-1.84-.19-8.31-.95-11.52-2.04-12.47-15.23-19.78-26.7-22.2-60.33-10.2-77.58,35.54-73.18,86.3.65,42.53,18.79,75.6,65.53,71.76,15.62-.62,39.07-5.11,37.8-24.53-.09-4.29.21-10.26-.16-14.15-.26-1.96-4.29-.91-6.04-1.16-8.62,0-19.56,0-28.5,0-2.12,0-4.09,0-6.12,0-1.9-.02-2.05-.18-2.07-2.04-.02-13.14,0-29.18,0-41.89,7.29-3.9,102.71-.1,120.32-1.39,1.38.19,2.72-.6,2.89.82.07,6.76.06,31.68,0,41.55.3,3.24-3.66,2.84-6.07,2.95-2.41.39-13.68-1.01-13.22,1.12-.87,8.76,1.61,79.68-.88,87.66-7.84.12-19.14.02-28.32.05-4.82-.34-7.15.69-9.84-.52l-.03-.03Z"/>
      <path d="M438.21,165.49c1.3-.82,1.15-1.81,1.16-4.03,0-10.79.12-30.79.12-38.13.99-24.21,22.57-28.91,42.84-30.27,11.93-1.85,26.29-36.7,35.86-47.18,13.52-23.23,38.2-18.35,62.94-17.8,6.42-1.02,14.27,2.59,14.2,9.65.06,9.94.42,81.27.56,107.58.53,5.91,8.37,9.83,13.56,9.97,8.48.06,64.09.31,94.97.47,15.43.95,19.82-3.3,27.31,6.66,5.42,7.23,5.21,44.84-1.2,50.32-8.96,12.09-32.17-1.83-37.19,11.14-3.43,7.31-8.55,13.65-15.11,18.26-27.12,18-56.28,3.41-68.37-23.78-16.96-.41-47.16-.08-60.4-.23-3.69-.54-5.08,3.14-6.5,6.29-18.37,38.98-67.03,29.95-83.62-5.5-10.86-2.5-28.09,3.3-33-10.77-2.35-8.06-1.67-19.27-1.24-26.92.26-7.65,6.26-13.17,13.06-15.69l.06-.04ZM499.71,184.41c-6.45.95-12.02,4.9-14.8,9.92-7.94,13.95-.08,33.08,17.11,33.51,32.71,2.06,28.22-48.83-2.18-43.45l-.14.02ZM668.83,221.44c4.59-4.45,7.16-11.37,6.27-17.06-2.01-16.06-22-27.04-35.35-15.76-24.27,19.19,7.24,54.51,28.98,32.92l.1-.1Z"/>
      <path d="M1150.44,534.6c4.73.16,12.4-.01,17.02.06,1.06.12,2.47-.23,2.85.94.28,8.92,0,31.48.1,40.13-.12,2.28.37,3.93-.53,4.2-10.47,0-92.46.1-105.97-.02-.66-.3-.34-1.38-.43-2.09.06-7.51-.14-35.35.09-42.22.16-.82.83-.92,2.77-.95,4.3-.01,11.26,0,15.74,0,1.84-.18,4.73.62,4.38-1.35-1.35-4.48-5.62-15.66-7.37-20.78-.92-2.38-.7-3.12-3.6-2.9-13.15.37-70.93-1.19-79.88.1-2.33,5.51-5.95,16.98-7.87,22.14-.77,2.27-.94,2.92,2.72,2.79,4.06.01,9.67,0,14.31,0,2.77.19,5.47-.48,6.54.59.35,8.98.49,37.2-.05,44.59-10.78.42-91.11-.02-99.73.13-.81-.02-.83-.17-.88-1.23-.1-7.1.05-34.44,0-41.88-.21-2.35,1.3-2.16,3.11-2.2,3.42-.02,10.66,0,13.92-.01.64-.01,2.73.08,2.96-.27,3.27-8.81,51.59-142.76,69.67-192.76,3.13-8.66,5.33-14.76,6.21-17.18.21-.53.22-.82.49-1.14.38-.15.86-.12,1.33-.12,12.41.33,41.07.29,55.08.58,1.78.12,2.3-.22,2.9.31,9.32,22.62,67.82,173.21,84.09,210.52h.04ZM1009.82,463.94c10.91.39,31.18.02,42.45.14,3.98,0,6.91.02,8.04-.02.54-.03.75-.1.75-.34-2.9-7.83-24.32-69.28-27.61-76.19-5.61,17.79-13.05,41.81-18.72,59.9-2.51,8.04-4.42,14.13-4.94,15.85-.07.26-.14.47.02.64h.01Z"/>
      <path d="M507.07,534.6c4.73.16,12.4-.01,17.02.06,1.06.12,2.46-.23,2.85.94.28,8.92,0,31.48.1,40.13-.14,2.34.42,3.8-.53,4.2-10.47.01-92.46.1-105.97-.02-.66-.3-.34-1.38-.43-2.09.06-7.51-.14-35.35.09-42.22.16-.82.83-.92,2.77-.95,4.33-.01,11.39,0,15.87,0,1.86-.19,4.61.63,4.22-1.39-1.46-4.59-5.94-16.04-7.77-21.18-.88-2.31-.82-3.1-3.62-2.84-13.14.46-70.8-.74-79.73.61-2.26,5.48-5.73,16.8-7.59,21.97-.74,2.21-.89,2.98,2.69,2.82,4.04.01,9.71,0,14.25,0,2.84.22,4.88-.54,6.08.65.26,9.11.52,37.18-.09,44.54-10.68.39-88.25-.02-98.48.12-1.16-.08-1.73-.35-1.99-1.85-.45-7.47.04-31.42-.14-39.71-.07-2.09.41-3.54,2.74-3.58,5.34-.59,12.34.38,16.96-.45,5.02-13.06,58.28-159.75,76.77-209.94.22-.53.22-.82.5-1.14.38-.15.86-.12,1.33-.12,12.41.33,41.06.3,55.07.6,1.79.17,2.28-.26,2.9.31,9.35,22.7,67.83,173.18,84.1,210.51h.04ZM417.61,463.94c.16-.17.07-.38,0-.62-.59-1.7-2.77-7.78-5.64-15.83-6.53-18.28-15.12-42.44-21.58-60.46-2.93,6.18-21.44,68.87-24.04,76.68,0,.26.2.34.73.37,1.08.04,3.91,0,7.8.02,11.27-.12,31.72.24,42.72-.14h.01Z"/>
      <path d="M618.83.52c28.61-1.01,108.84-.18,119.45-.52,3.08.1,6.32,1.02,8.79,3.57,1.97,2.17,2.38,5.49,2.42,8.42.32,40.12,1.81,80.85-.68,120.85-.95,2.86-3.13,5.51-5.84,5.84-2.35,0-9.96,0-20.38,0-24.8.1-88.33-.07-104.6,0-4.11-.67-6.8-6.16-7-9.99.03-5.73-.01-57.35.01-77.87,0-11.22,0-21.47,0-28.94.21-9.77-1.96-17.85,7.76-21.34l.06-.02ZM722.64,27.33c-16.82-.31-42.48-.03-60.86-.12-7.63,0-14.65,0-22.02,0-1.71.02-1.55-.18-1.56,1.45.01.48,0,.92,0,1.44,0,6.74,0,13.24,0,20.24.1,19.03-.22,44.28.12,61.9,16.96.37,42.85.03,61.36.14,7.48,0,14.4,0,21.63,0,1.65-.01,1.44.15,1.46-1.55,0-7.39,0-14.43,0-22.08-.1-18.89.22-43.98-.12-61.42h0Z"/>
      <path d="M754.16,619.32c2.47-.76,4.6,1.35,5.08,3.71,1.46,4.46,3.61,12.16,5.18,16.4,1.33,2.94,2.59-1.26,3.51-3.68,1.47-4.15,2.43-8.96,4.12-13.03.76-2.01,3.65-4.49,5.39-3.3.76.52.88,1.84.89,2.86.02,4.95,0,15.88,0,20.92.03,1.19-.15,2.85-1.33,3.26-1.45.3-2.06-.98-2.24-2.66-.13-3.57-.02-10.15-.05-13.92,0-2.41.02-3.89-.2-3.81-.43.49-.82,2.08-1.67,4.5-1.48,4.24-3,9.35-4.64,13.62-1.08,2.42-2.99,2.57-4.42,1.17-1.34-1.43-1.67-3.46-2.37-5.33-1.61-4.52-3.49-11.12-5.21-15.23-.23-.2-.21,1.21-.22,3.66,0,3.74,0,9.59,0,13.39-.07,2.09.13,3.81-1.37,4.58-.39.1-.8-.1-1.11-.57-.38-.55-.53-1.53-.54-2.33-.01-5.1-.02-17.18,0-21.88,0-.95.22-2,1.12-2.3l.06-.02Z"/>
      <path d="M169.99,619.32c2.36-.86,4.37,1.25,4.86,3.48,1.51,4.5,3.77,12.35,5.39,16.63,1.29,2.9,2.63-1.45,3.14-2.68,1.36-3.8,2.36-8.04,3.65-11.97.45-1.34,1.01-2.75,1.94-3.79,1.38-1.67,4.32-2.35,4.96.2.35,1.2.19,3.86.23,5.96-.03,5.29.05,11.72-.03,16.79-.16,3.51-3.5,3.44-3.57-.56-.09-5.03.04-12.12-.05-17.27-.03-1.06-.27-.67-.52.03-.93,2.66-4.17,12.74-5.7,17.25-1.18,3.9-4.6,3.51-5.96-.25-1.31-3.61-3.36-9.67-4.68-13.43-.91-2.45-1.32-4.23-1.7-4.25-.29,1.9-.08,8.11-.14,11.15-.24,2.55.87,9.55-1.61,9.77-1.23-.17-1.42-2.09-1.41-3.24,0-5.25-.02-16.89.01-21.47,0-.95.25-2.01,1.11-2.35l.06-.02Z"/>
      <path d="M928.37,643.43c-4.87-5.3-4.69-14.92-.27-20.53,2.48-3.31,6.69-5.11,10.82-4.75,10.11.61,14.35,12.77,10.57,21.75-.42,1.22-.75,2.31-.67,3.54.1,1.61.8,3.3.36,3.85-.36.37-.86.28-1.59.18-1.37-.25-2.69-.78-4.22-.67-1.51.1-2.98.51-4.5.59-3.83.3-7.91-1.15-10.44-3.87l-.08-.09ZM939.92,642.98c.46-.74.23-1.84.77-2.55.53-.69,2.31-.39,3.53-.75,2.02-.58,2.52-2.85,2.89-5.13.94-7.6-4.49-14.6-12.49-11.83-8.78,3.22-7.76,19.24,1.32,20.88,1.2.23,3.34.45,3.95-.56l.03-.05Z"/>
      <path d="M652.51,619.23c4.3.45,8.81,2.96,8.47,7.69-.04,1.78-1.01,3.46-1.31,5.14-.48,2.06.65,4.43.99,6.59.05,2.01,1.71,6.69-.58,7.31-3.02-.16-2.62-5.08-3.37-7.29-.47-2.17-1.98-3.54-4.19-3.61-2.3-.13-5.93-.29-7.61.2-1.73.61-1.51,2.46-1.58,4.16-.05,1.79.2,4.3-.62,5.76-.95,1.75-2.74,1.27-3.07-.3-.16-5.87-.3-17.77.06-24.29.45-1.42,1.61-1.38,3.14-1.51,2.98-.07,6.53-.27,9.55.13l.12.02ZM644.09,631.31c.9.72,2.21.55,3.93.6,2.12-.02,3.93,0,5.61-.6,3.09-1.02,4.13-5.32,2.08-7.51-1.01-.96-2.38-.89-3.75-.94-1.67-.01-3.52-.01-5.21,0-2.92-.09-3.32.85-3.33,3.13.07,1.55-.34,4.16.62,5.27l.05.05Z"/>
      <path d="M348.9,639.43c.13,0,.24-.11.31-.32.17-.53.19-1.25.21-1.93.1-4.07-.15-10.8.12-15.23.13-.94.49-1.85,1.29-2.17,2.01-.63,2.35,2.14,2.23,4.03,0,2.13,0,5.14,0,8.25,0,3.13,0,6.03,0,9.01-.12,2.98.56,5.32-2,5.13-2.24-.48-4.14-2.54-5.3-4.53-2.53-4.16-4.95-8.56-7.5-12.65-.68-.97-1.43-2.32-2.4-2.82-1.27-.24-.82,3.56-.91,6.76-.02,3.22.05,7.99-.04,10.75-.18,2.64-1.58,3.39-2.47,2.15-.74-1.16-.46-2.62-.52-5.11,0-4.13,0-9.86,0-14.17.14-3.15-1.04-9.69,3.86-6.58.69.47,1.29,1.14,1.81,1.85,2.62,3.6,6.3,10.77,9.1,15.02.52.8,1.73,2.61,2.19,2.57h.03Z"/>
      <path d="M409.08,620.29c1.16,2.37-2.95,2.67-5.03,2.56-2.04,0-4.56,0-6.57,0-1.53.03-3.3,0-3.81,1.65-.45,1.76-.56,4.39.69,5.53,2.44,1.91,13.12-1.07,13.61,2.53-.76,3.49-11.35.45-13.73,2.5-1.17,1.26-.99,4.06-.62,5.94.41,1.66,2.07,1.74,3.61,1.76,2.02.02,4.57,0,6.63.01,2.16-.11,6.15.29,5.56,2.58-.24,1.01-2.86,1.11-4.2,1.04-3.4,0-8.32,0-11.44,0-1.37,0-2.39,0-3.03-.14-.46-.1-.74-.27-.91-.58-.24-.47-.24-1.1-.26-1.7-.01-4.28-.02-16.17,0-20.98.08-1.51.03-3.14,1.79-3.49,3.45-.58,9.03-.19,12.85-.3,1.52-.06,4.26,0,4.8,1.02l.03.05Z"/>
      <path d="M716.57,620.29c1.16,2.37-2.95,2.67-5.03,2.56-2.04,0-4.56,0-6.57,0-1.53.03-3.3,0-3.81,1.65-.45,1.76-.56,4.39.69,5.53,2.44,1.91,13.12-1.07,13.61,2.53-.76,3.49-11.35.45-13.73,2.5-1.17,1.26-.99,4.06-.62,5.94.41,1.66,2.07,1.74,3.61,1.76,2.02.02,4.57,0,6.63.01,2.16-.11,6.15.29,5.56,2.58-.24,1.01-2.86,1.11-4.2,1.04-3.4,0-8.32,0-11.44,0-1.37,0-2.39,0-3.03-.14-.46-.1-.74-.27-.91-.58-.24-.47-.24-1.1-.26-1.7-.01-4.28-.02-16.17,0-20.98.08-1.51.03-3.14,1.79-3.49,3.45-.58,9.03-.19,12.85-.3,1.52-.06,4.26,0,4.8,1.02l.03.05Z"/>
      <path d="M1063.32,620.29c1.16,2.37-2.95,2.67-5.03,2.56-2.04,0-4.56,0-6.57,0-1.53.03-3.3,0-3.81,1.65-.45,1.76-.56,4.39.69,5.53,2.44,1.91,13.12-1.07,13.61,2.53-.76,3.49-11.35.45-13.73,2.5-1.17,1.26-.99,4.06-.62,5.94.41,1.66,2.07,1.74,3.61,1.76,2.02.02,4.57,0,6.63.01,2.16-.11,6.15.29,5.56,2.58-.24,1.01-2.86,1.11-4.2,1.04-3.4,0-8.32,0-11.44,0-1.37,0-2.39,0-3.03-.14-.46-.1-.74-.27-.91-.58-.24-.47-.24-1.1-.26-1.7-.01-4.28-.02-16.17,0-20.98.08-1.51.03-3.14,1.79-3.49,3.45-.58,9.03-.19,12.85-.3,1.52-.06,4.26,0,4.8,1.02l.03.05Z"/>
      <path d="M283.02,618.76c18.67-.63,17.38,30.65-1.32,28.19-10.77-1.1-14.24-15.08-8.51-23.03,2.02-2.99,5.72-5.05,9.7-5.15h.13ZM277.37,641.51c3.6,3.56,9.94,2.77,13.03-1.09,2.7-3.18,2.9-8.29,1.64-12.05-1.52-5.29-7.56-7.7-12.46-5.4-6.35,3.1-6.95,13.77-2.29,18.46l.08.08Z"/>
      <path d="M825.48,618.75c18.62-1.28,18.51,29.9-.29,28.26-10.9-.68-14.83-14.51-9.39-22.73,1.93-3.11,5.67-5.3,9.55-5.52h.13ZM823.75,622.31c-2.7.63-4.61,2.56-5.63,5.13-3.11,7.45,1.12,18.45,10.58,16.1,11.64-3.43,8.16-24.41-4.83-21.26l-.12.03Z"/>
      <path d="M555.17,621.42c1.66,1.53,1.8,4.07.79,5.99-.77,1.6-2.19,2.86-2.46,4.19-.38,1.81,1.04,3.94,2.92,4.08,1.29.14,2.74-1.26,3.64-1.02,1.6.81.18,3.96.61,5.65.2,1.68,1.56,3.4,1.83,4.55.45,1.68-1.32,1.31-2.39,1-1.18-.31-2.39-.58-3.65-.53-1.56.04-3.21.53-4.75.92-4.22,1.14-8.09-.19-10.1-2.6-1.8-2.14-2.09-5.13.14-7.88.73-.94,1.63-1.86,2.28-2.83.86-1.23,1.11-2.61.77-4.09-.87-2.73-1.06-6.23,1.63-8.02,2.37-1.7,6.42-1.55,8.64.51l.08.08ZM549.76,622.31c-2.57.6-2.64,3.79-1.46,5.69.43.78,1.07,1.48,1.97,1.47,4.09-.56,4.15-8.12-.39-7.19l-.12.03ZM548.04,634.01c-1.29.22-2.36,1.55-3.1,2.72-2.68,4.44,1.96,9.11,6.76,7.01,2.99-1.31,3.81-3.2,1.14-5.87-1.33-1.28-2.9-3.94-4.71-3.86h-.09Z"/>
      <path d="M1118.36,625.65c-1.22,1.33-3.69-1.66-5.18-2.41-1.16-.74-2.7-1.17-4.22-1.16-4.36-.28-7.76,4.22-3.37,7.08,2.55,1.59,7.04,1.88,10.24,3.46,3.26,1.45,4.83,5.07,3.85,8.4-2.25,8.13-17.63,8-20.69.32-.65-2.28.72-3.64,2.56-1.9,1.19.99,2.35,2.55,4.14,3.33,1.96.89,4.38,1.08,6.43.64,4.76-.94,5.86-5.64,1.11-7.71-2.98-1.4-7.47-1.87-10.4-3.5-3.07-1.54-4.2-5.25-2.89-8.32,2.61-6.49,14.39-6.95,18.14-.86.63,1.02.65,2.07.3,2.59l-.03.05Z"/>
      <path d="M464.04,625.63c-1.18,1.07-3.19-1.3-5.03-2.32-7.73-4.3-16.85,5.05-3.8,7.43,5.57,1.1,12.11,3.39,10.24,10.36-2.35,7.8-19.52,8.32-21.02-.91.24-2.88,2.55-.75,3.94.64,2.26,2.56,5.81,3.57,9.19,2.71,4.09-.84,5.93-5.54,1.82-7.63-5.3-2.5-15.96-2.35-13.99-11.02,1.75-7.21,13.04-8.2,17.63-2.76.85.83,1.64,2.73,1.03,3.45l-.03.04Z"/>
      <path d="M988.77,619.56c.93.56.96,1.81,1,3.83,0,3.14,0,7.94,0,11.15.03,2.17-.07,3.9,1.01,5.67,1.12,1.79,3.2,3.14,5.36,3.28,2.98.28,6.05-1.64,7.04-4.26.69-2.03.46-3.75.51-6.07,0-1.76,0-3.87,0-5.88.19-2.66-.91-8.96,2.43-7.94,1.4.61,1.2,3.67,1.2,5.26,0,2.31,0,5.15,0,7.6.03,5,.46,8.81-3.57,12.21-4.31,3.61-10.92,3.67-14.57-.27-3.45-3.91-3.17-9.04-3.32-14.1.1-2.88-.75-10.73,2.86-10.49l.05.02Z"/>
      <path d="M123.79,619.09c1.56.48,1.73,1.99,2.74,4.55.97,2.63,1.98,5.39,3.14,8.53,1.36,3.68,2.73,7.42,3.72,10.1.85,2.29,1.88,4.54-.5,4.03-3.33-1-3.23-5.88-6.43-6.98-1.54-.57-4.02-.46-6.11-.37-1.25.08-2.6.21-3.55,1.08-1.58,1.56-1.86,4.43-3.67,5.79-1.94,1.55-2.82.08-2.03-1.56,1.72-4.57,6.27-16.56,8.18-21.61.57-2.04,2.16-4.09,4.44-3.57l.06.02ZM119.05,635.49c.44.32,1.24.43,2.23.45,1.39-.01,3.41-.04,4.55-.63,1.48-.96-.05-3.4-.37-4.75-1.22-2.95-2.35-9.44-4.47-3.99-.75,1.8-1.52,4.14-2.07,6.01-.4,1.43-.53,2.4.07,2.87l.06.05Z"/>
      <path d="M76.61,626.32c-.41.76-1.94.07-2.82-.68-2.38-2.14-5.55-3.99-8.95-3.15-9.56,1.92-10.31,18.06-.85,20.55,2.65.74,5.78.03,7.76-1.87,1.67-1.52,2.47-3.29,3.83-4.15.96-.61,1.8-.02,1.61,1.44-.28,2.7-3.85,6.46-6.81,7.57-11.8,5.1-20.68-9.39-15.6-19.88,3.08-7.18,13.1-9.71,19.21-4.9,1.56,1.32,3.35,3.16,2.67,5.03l-.03.04Z"/>
      <path d="M877.05,619.5c.9.27.94,1.43.95,2.28.19,5.31-.38,15.56.24,20.32.58.9,1.41.71,2.71.81,2.32.1,6.75-.18,8.98.19,3.01.76,2.21,3.48-.68,3.49-3.87.05-9.62.09-13.41-.03-1.5-.05-1.51-1.05-1.52-2.23,0-4.48-.02-17.56,0-22.17-.11-1.5,1.21-3.04,2.67-2.68h.05Z"/>
      <path d="M233.75,619.36c1.34.28.79,3.26.91,5.49,0,4.58,0,11.27,0,15.94-.08,2.15.2,3.35-.19,4.81-.49,1.12-2.21,1.22-2.98.38-.37-.4-.43-1.03-.45-1.63-.01-4.5,0-17.03,0-21.86-.15-1.77.81-3.48,2.66-3.15h.05Z"/>

</svg>